<?xml version="1.0" encoding="UTF-8" standalone="no"?>
<!DOCTYPE svg PUBLIC "-//W3C//DTD SVG 1.1//EN"
 "http://www.w3.org/Graphics/SVG/1.1/DTD/svg11.dtd">
<!-- Generated by graphviz version 2.43.0 (0)
 -->
<!-- Title: G Pages: 1 -->
<svg width="1334pt" height="177pt"
 viewBox="0.00 0.00 1333.85 177.05" xmlns="http://www.w3.org/2000/svg" xmlns:xlink="http://www.w3.org/1999/xlink">
<g id="graph0" class="graph" transform="scale(1 1) rotate(0) translate(14.4 162.65)">
<title>G</title>
<polygon fill="white" stroke="transparent" points="-14.4,14.4 -14.4,-162.65 1319.45,-162.65 1319.45,14.4 -14.4,14.4"/>
<text text-anchor="middle" x="652.53" y="-131.45" font-family="Times,serif" font-size="16.00">MHA prefill</text>
<!-- O -->
<g id="node1" class="node">
<title>O</title>
<path fill="#d5f5e3" stroke="#3a3a3a" stroke-width="1.2" d="M1293.05,-67.63C1293.05,-67.63 1263.05,-67.63 1263.05,-67.63 1257.05,-67.63 1251.05,-61.63 1251.05,-55.63 1251.05,-55.63 1251.05,-43.63 1251.05,-43.63 1251.05,-37.63 1257.05,-31.63 1263.05,-31.63 1263.05,-31.63 1293.05,-31.63 1293.05,-31.63 1299.05,-31.63 1305.05,-37.63 1305.05,-43.63 1305.05,-43.63 1305.05,-55.63 1305.05,-55.63 1305.05,-61.63 1299.05,-67.63 1293.05,-67.63"/>
<text text-anchor="middle" x="1278.05" y="-46.83" font-family="Helvetica,sans-Serif" font-size="11.00">O</text>
</g>
<!-- Op_AV -->
<g id="node2" class="node">
<title>Op_AV</title>
<ellipse fill="#d6eaf8" stroke="#3a3a3a" stroke-width="1.2" cx="1086.75" cy="-49.63" rx="40.11" ry="22.76"/>
<text text-anchor="middle" x="1086.75" y="-52.83" font-family="Helvetica,sans-Serif" font-size="11.00">Op_AV</text>
<text text-anchor="middle" x="1086.75" y="-40.83" font-family="Helvetica,sans-Serif" font-size="11.00">MatMul</text>
</g>
<!-- Op_AV&#45;&gt;O -->
<g id="edge6" class="edge">
<title>Op_AV&#45;&gt;O</title>
<path fill="none" stroke="#4a5568" d="M1127.32,-49.63C1127.32,-49.63 1243.79,-49.63 1243.79,-49.63"/>
<polygon fill="#4a5568" stroke="#4a5568" points="1243.79,-52.08 1250.79,-49.63 1243.79,-47.18 1243.79,-52.08"/>
<text text-anchor="middle" x="1189.05" y="-61.23" font-family="Helvetica,sans-Serif" font-size="8.00">O</text>
<text text-anchor="middle" x="1189.05" y="-52.23" font-family="Helvetica,sans-Serif" font-size="8.00">shape=(1, 8, 8, 128)</text>
</g>
<!-- Op_K_HeadBroadcast -->
<g id="node3" class="node">
<title>Op_K_HeadBroadcast</title>
<ellipse fill="#fef9e7" stroke="#3a3a3a" stroke-width="1.2" cx="320.58" cy="-99.63" rx="94.51" ry="22.76"/>
<text text-anchor="middle" x="320.58" y="-102.83" font-family="Helvetica,sans-Serif" font-size="11.00">Op_K_HeadBroadcast</text>
<text text-anchor="middle" x="320.58" y="-90.83" font-family="Helvetica,sans-Serif" font-size="11.00">HeadBroadcast</text>
</g>
<!-- Op_QK -->
<g id="node5" class="node">
<title>Op_QK</title>
<ellipse fill="#d6eaf8" stroke="#3a3a3a" stroke-width="1.2" cx="579.63" cy="-99.63" rx="40.11" ry="22.76"/>
<text text-anchor="middle" x="579.63" y="-102.83" font-family="Helvetica,sans-Serif" font-size="11.00">Op_QK</text>
<text text-anchor="middle" x="579.63" y="-90.83" font-family="Helvetica,sans-Serif" font-size="11.00">MatMul</text>
</g>
<!-- Op_K_HeadBroadcast&#45;&gt;Op_QK -->
<g id="edge2" class="edge">
<title>Op_K_HeadBroadcast&#45;&gt;Op_QK</title>
<path fill="none" stroke="#4a5568" d="M415.57,-99.63C415.57,-99.63 532.16,-99.63 532.16,-99.63"/>
<polygon fill="#4a5568" stroke="#4a5568" points="532.16,-102.08 539.16,-99.63 532.16,-97.18 532.16,-102.08"/>
<text text-anchor="middle" x="477.33" y="-111.23" font-family="Helvetica,sans-Serif" font-size="8.00">K_T_ATTN</text>
<text text-anchor="middle" x="477.33" y="-102.23" font-family="Helvetica,sans-Serif" font-size="8.00">shape=(1, 8, 128, 8)</text>
</g>
<!-- Op_K_T -->
<g id="node4" class="node">
<title>Op_K_T</title>
<ellipse fill="#ebf5fb" stroke="#3a3a3a" stroke-width="1.2" cx="50.91" cy="-99.63" rx="50.82" ry="22.76"/>
<text text-anchor="middle" x="50.91" y="-102.83" font-family="Helvetica,sans-Serif" font-size="11.00">Op_K_T</text>
<text text-anchor="middle" x="50.91" y="-90.83" font-family="Helvetica,sans-Serif" font-size="11.00">Transpose</text>
</g>
<!-- Op_K_T&#45;&gt;Op_K_HeadBroadcast -->
<g id="edge1" class="edge">
<title>Op_K_T&#45;&gt;Op_K_HeadBroadcast</title>
<path fill="none" stroke="#4a5568" d="M101.95,-99.63C101.95,-99.63 218.81,-99.63 218.81,-99.63"/>
<polygon fill="#4a5568" stroke="#4a5568" points="218.81,-102.08 225.81,-99.63 218.81,-97.18 218.81,-102.08"/>
<text text-anchor="middle" x="163.82" y="-111.23" font-family="Helvetica,sans-Serif" font-size="8.00">K_T</text>
<text text-anchor="middle" x="163.82" y="-102.23" font-family="Helvetica,sans-Serif" font-size="8.00">shape=(1, 8, 128, 8)</text>
</g>
<!-- Op_Softmax -->
<g id="node6" class="node">
<title>Op_Softmax</title>
<ellipse fill="#e8daef" stroke="#3a3a3a" stroke-width="1.2" cx="827.69" cy="-99.63" rx="58.88" ry="22.76"/>
<text text-anchor="middle" x="827.69" y="-102.83" font-family="Helvetica,sans-Serif" font-size="11.00">Op_Softmax</text>
<text text-anchor="middle" x="827.69" y="-90.83" font-family="Helvetica,sans-Serif" font-size="11.00">Softmax</text>
</g>
<!-- Op_QK&#45;&gt;Op_Softmax -->
<g id="edge4" class="edge">
<title>Op_QK&#45;&gt;Op_Softmax</title>
<path fill="none" stroke="#4a5568" d="M620.04,-99.63C620.04,-99.63 761.76,-99.63 761.76,-99.63"/>
<polygon fill="#4a5568" stroke="#4a5568" points="761.76,-102.08 768.76,-99.63 761.76,-97.18 761.76,-102.08"/>
<text text-anchor="middle" x="676.44" y="-111.23" font-family="Helvetica,sans-Serif" font-size="8.00">SCORES</text>
<text text-anchor="middle" x="676.44" y="-102.23" font-family="Helvetica,sans-Serif" font-size="8.00">shape=(1, 8, 8, 8)</text>
</g>
<!-- Op_Softmax&#45;&gt;Op_AV -->
<g id="edge5" class="edge">
<title>Op_Softmax&#45;&gt;Op_AV</title>
<path fill="none" stroke="#4a5568" d="M886.54,-99.63C963.07,-99.63 1087.05,-99.63 1087.05,-99.63 1087.05,-99.63 1087.05,-79.29 1087.05,-79.29"/>
<polygon fill="#4a5568" stroke="#4a5568" points="1089.5,-79.29 1087.05,-72.29 1084.6,-79.29 1089.5,-79.29"/>
<text text-anchor="middle" x="984.44" y="-100.23" font-family="Helvetica,sans-Serif" font-size="8.00">PROBS</text>
<text text-anchor="middle" x="984.44" y="-91.23" font-family="Helvetica,sans-Serif" font-size="8.00">shape=(1, 8, 8, 8)</text>
</g>
<!-- Op_V_HeadBroadcast -->
<g id="node7" class="node">
<title>Op_V_HeadBroadcast</title>
<ellipse fill="#fef9e7" stroke="#3a3a3a" stroke-width="1.2" cx="827.69" cy="-22.63" rx="94.51" ry="22.76"/>
<text text-anchor="middle" x="827.69" y="-25.83" font-family="Helvetica,sans-Serif" font-size="11.00">Op_V_HeadBroadcast</text>
<text text-anchor="middle" x="827.69" y="-13.83" font-family="Helvetica,sans-Serif" font-size="11.00">HeadBroadcast</text>
</g>
<!-- Op_V_HeadBroadcast&#45;&gt;Op_AV -->
<g id="edge3" class="edge">
<title>Op_V_HeadBroadcast&#45;&gt;Op_AV</title>
<path fill="none" stroke="#4a5568" d="M904.02,-36.13C904.02,-36.13 1047.26,-36.13 1047.26,-36.13"/>
<polygon fill="#4a5568" stroke="#4a5568" points="1047.26,-38.58 1054.26,-36.13 1047.26,-33.68 1047.26,-38.58"/>
<text text-anchor="middle" x="984.44" y="-34.23" font-family="Helvetica,sans-Serif" font-size="8.00">V_ATTN</text>
<text text-anchor="middle" x="984.44" y="-25.23" font-family="Helvetica,sans-Serif" font-size="8.00">shape=(1, 8, 8, 128)</text>
</g>
</g>
</svg>
