<?xml version="1.0" encoding="UTF-8" standalone="no"?>
<!DOCTYPE svg PUBLIC "-//W3C//DTD SVG 1.1//EN"
 "http://www.w3.org/Graphics/SVG/1.1/DTD/svg11.dtd">
<!-- Generated by graphviz version 2.43.0 (0)
 -->
<!-- Title: G Pages: 1 -->
<svg width="1953pt" height="177pt"
 viewBox="0.00 0.00 1953.48 177.05" xmlns="http://www.w3.org/2000/svg" xmlns:xlink="http://www.w3.org/1999/xlink">
<g id="graph0" class="graph" transform="scale(1 1) rotate(0) translate(14.4 162.65)">
<title>G</title>
<polygon fill="white" stroke="transparent" points="-14.4,14.4 -14.4,-162.65 1939.08,-162.65 1939.08,14.4 -14.4,14.4"/>
<text text-anchor="middle" x="962.34" y="-131.45" font-family="Times,serif" font-size="16.00">MQA decode</text>
<!-- O -->
<g id="node1" class="node">
<title>O</title>
<path fill="#d5f5e3" stroke="#3a3a3a" stroke-width="1.2" d="M1912.68,-78.63C1912.68,-78.63 1882.68,-78.63 1882.68,-78.63 1876.68,-78.63 1870.68,-72.63 1870.68,-66.63 1870.68,-66.63 1870.68,-54.63 1870.68,-54.63 1870.68,-48.63 1876.68,-42.63 1882.68,-42.63 1882.68,-42.63 1912.68,-42.63 1912.68,-42.63 1918.68,-42.63 1924.68,-48.63 1924.68,-54.63 1924.68,-54.63 1924.68,-66.63 1924.68,-66.63 1924.68,-72.63 1918.68,-78.63 1912.68,-78.63"/>
<text text-anchor="middle" x="1897.68" y="-57.83" font-family="Helvetica,sans-Serif" font-size="11.00">O</text>
</g>
<!-- Op_AV -->
<g id="node2" class="node">
<title>Op_AV</title>
<ellipse fill="#d6eaf8" stroke="#3a3a3a" stroke-width="1.2" cx="1706.37" cy="-60.63" rx="40.11" ry="22.76"/>
<text text-anchor="middle" x="1706.37" y="-63.83" font-family="Helvetica,sans-Serif" font-size="11.00">Op_AV</text>
<text text-anchor="middle" x="1706.37" y="-51.83" font-family="Helvetica,sans-Serif" font-size="11.00">MatMul</text>
</g>
<!-- Op_AV&#45;&gt;O -->
<g id="edge10" class="edge">
<title>Op_AV&#45;&gt;O</title>
<path fill="none" stroke="#4a5568" d="M1746.94,-60.63C1746.94,-60.63 1863.41,-60.63 1863.41,-60.63"/>
<polygon fill="#4a5568" stroke="#4a5568" points="1863.41,-63.08 1870.41,-60.63 1863.41,-58.18 1863.41,-63.08"/>
<text text-anchor="middle" x="1808.68" y="-72.23" font-family="Helvetica,sans-Serif" font-size="8.00">O</text>
<text text-anchor="middle" x="1808.68" y="-63.23" font-family="Helvetica,sans-Serif" font-size="8.00">shape=(1, 8, 1, 128)</text>
</g>
<!-- Op_K_Append -->
<g id="node3" class="node">
<title>Op_K_Append</title>
<ellipse fill="#fdebd0" stroke="#3a3a3a" stroke-width="1.2" cx="65.05" cy="-99.63" rx="65.11" ry="22.76"/>
<text text-anchor="middle" x="65.05" y="-102.83" font-family="Helvetica,sans-Serif" font-size="11.00">Op_K_Append</text>
<text text-anchor="middle" x="65.05" y="-90.83" font-family="Helvetica,sans-Serif" font-size="11.00">KVAppend</text>
</g>
<!-- Op_K_CacheView -->
<g id="node4" class="node">
<title>Op_K_CacheView</title>
<ellipse fill="#eaeaea" stroke="#3a3a3a" stroke-width="1.2" cx="331.89" cy="-99.63" rx="77.56" ry="22.76"/>
<text text-anchor="middle" x="331.89" y="-102.83" font-family="Helvetica,sans-Serif" font-size="11.00">Op_K_CacheView</text>
<text text-anchor="middle" x="331.89" y="-90.83" font-family="Helvetica,sans-Serif" font-size="11.00">Identity</text>
</g>
<!-- Op_K_Append&#45;&gt;Op_K_CacheView -->
<g id="edge1" class="edge">
<title>Op_K_Append&#45;&gt;Op_K_CacheView</title>
<path fill="none" stroke="#4a5568" d="M130.33,-99.63C130.33,-99.63 247,-99.63 247,-99.63"/>
<polygon fill="#4a5568" stroke="#4a5568" points="247,-102.08 254,-99.63 247,-97.18 247,-102.08"/>
<text text-anchor="middle" x="192.11" y="-111.23" font-family="Helvetica,sans-Serif" font-size="8.00">K_CACHE_OUT</text>
<text text-anchor="middle" x="192.11" y="-102.23" font-family="Helvetica,sans-Serif" font-size="8.00">shape=(1, 1, 8, 128)</text>
</g>
<!-- Op_K_T -->
<g id="node6" class="node">
<title>Op_K_T</title>
<ellipse fill="#ebf5fb" stroke="#3a3a3a" stroke-width="1.2" cx="584.58" cy="-99.63" rx="50.82" ry="22.76"/>
<text text-anchor="middle" x="584.58" y="-102.83" font-family="Helvetica,sans-Serif" font-size="11.00">Op_K_T</text>
<text text-anchor="middle" x="584.58" y="-90.83" font-family="Helvetica,sans-Serif" font-size="11.00">Transpose</text>
</g>
<!-- Op_K_CacheView&#45;&gt;Op_K_T -->
<g id="edge3" class="edge">
<title>Op_K_CacheView&#45;&gt;Op_K_T</title>
<path fill="none" stroke="#4a5568" d="M409.77,-99.63C409.77,-99.63 526.29,-99.63 526.29,-99.63"/>
<polygon fill="#4a5568" stroke="#4a5568" points="526.29,-102.08 533.29,-99.63 526.29,-97.18 526.29,-102.08"/>
<text text-anchor="middle" x="471.67" y="-111.23" font-family="Helvetica,sans-Serif" font-size="8.00">K_CTX</text>
<text text-anchor="middle" x="471.67" y="-102.23" font-family="Helvetica,sans-Serif" font-size="8.00">shape=(1, 1, 8, 128)</text>
</g>
<!-- Op_K_HeadBroadcast -->
<g id="node5" class="node">
<title>Op_K_HeadBroadcast</title>
<ellipse fill="#fef9e7" stroke="#3a3a3a" stroke-width="1.2" cx="854.25" cy="-99.63" rx="94.51" ry="22.76"/>
<text text-anchor="middle" x="854.25" y="-102.83" font-family="Helvetica,sans-Serif" font-size="11.00">Op_K_HeadBroadcast</text>
<text text-anchor="middle" x="854.25" y="-90.83" font-family="Helvetica,sans-Serif" font-size="11.00">HeadBroadcast</text>
</g>
<!-- Op_QK -->
<g id="node7" class="node">
<title>Op_QK</title>
<ellipse fill="#d6eaf8" stroke="#3a3a3a" stroke-width="1.2" cx="1150.78" cy="-99.63" rx="40.11" ry="22.76"/>
<text text-anchor="middle" x="1150.78" y="-102.83" font-family="Helvetica,sans-Serif" font-size="11.00">Op_QK</text>
<text text-anchor="middle" x="1150.78" y="-90.83" font-family="Helvetica,sans-Serif" font-size="11.00">MatMul</text>
</g>
<!-- Op_K_HeadBroadcast&#45;&gt;Op_QK -->
<g id="edge6" class="edge">
<title>Op_K_HeadBroadcast&#45;&gt;Op_QK</title>
<path fill="none" stroke="#4a5568" d="M949.3,-99.63C949.3,-99.63 1103.29,-99.63 1103.29,-99.63"/>
<polygon fill="#4a5568" stroke="#4a5568" points="1103.29,-102.08 1110.29,-99.63 1103.29,-97.18 1103.29,-102.08"/>
<text text-anchor="middle" x="1011" y="-111.23" font-family="Helvetica,sans-Serif" font-size="8.00">K_T_ATTN</text>
<text text-anchor="middle" x="1011" y="-102.23" font-family="Helvetica,sans-Serif" font-size="8.00">shape=(1, 8, 128, 8)</text>
</g>
<!-- Op_K_T&#45;&gt;Op_K_HeadBroadcast -->
<g id="edge5" class="edge">
<title>Op_K_T&#45;&gt;Op_K_HeadBroadcast</title>
<path fill="none" stroke="#4a5568" d="M635.62,-99.63C635.62,-99.63 752.48,-99.63 752.48,-99.63"/>
<polygon fill="#4a5568" stroke="#4a5568" points="752.48,-102.08 759.48,-99.63 752.48,-97.18 752.48,-102.08"/>
<text text-anchor="middle" x="697.49" y="-111.23" font-family="Helvetica,sans-Serif" font-size="8.00">K_T</text>
<text text-anchor="middle" x="697.49" y="-102.23" font-family="Helvetica,sans-Serif" font-size="8.00">shape=(1, 1, 128, 8)</text>
</g>
<!-- Op_Softmax -->
<g id="node8" class="node">
<title>Op_Softmax</title>
<ellipse fill="#e8daef" stroke="#3a3a3a" stroke-width="1.2" cx="1447.31" cy="-99.63" rx="58.88" ry="22.76"/>
<text text-anchor="middle" x="1447.31" y="-102.83" font-family="Helvetica,sans-Serif" font-size="11.00">Op_Softmax</text>
<text text-anchor="middle" x="1447.31" y="-90.83" font-family="Helvetica,sans-Serif" font-size="11.00">Softmax</text>
</g>
<!-- Op_QK&#45;&gt;Op_Softmax -->
<g id="edge8" class="edge">
<title>Op_QK&#45;&gt;Op_Softmax</title>
<path fill="none" stroke="#4a5568" d="M1191.39,-99.63C1191.39,-99.63 1381.57,-99.63 1381.57,-99.63"/>
<polygon fill="#4a5568" stroke="#4a5568" points="1381.57,-102.08 1388.57,-99.63 1381.57,-97.18 1381.57,-102.08"/>
<text text-anchor="middle" x="1290.56" y="-111.23" font-family="Helvetica,sans-Serif" font-size="8.00">SCORES</text>
<text text-anchor="middle" x="1290.56" y="-102.23" font-family="Helvetica,sans-Serif" font-size="8.00">shape=(1, 8, 1, 8)</text>
</g>
<!-- Op_Softmax&#45;&gt;Op_AV -->
<g id="edge9" class="edge">
<title>Op_Softmax&#45;&gt;Op_AV</title>
<path fill="none" stroke="#4a5568" d="M1505.52,-102.75C1581.99,-102.75 1706.68,-102.75 1706.68,-102.75 1706.68,-102.75 1706.68,-90.66 1706.68,-90.66"/>
<polygon fill="#4a5568" stroke="#4a5568" points="1709.13,-90.66 1706.68,-83.66 1704.23,-90.66 1709.13,-90.66"/>
<text text-anchor="middle" x="1604.07" y="-105.23" font-family="Helvetica,sans-Serif" font-size="8.00">PROBS</text>
<text text-anchor="middle" x="1604.07" y="-96.23" font-family="Helvetica,sans-Serif" font-size="8.00">shape=(1, 8, 1, 8)</text>
</g>
<!-- Op_V_Append -->
<g id="node9" class="node">
<title>Op_V_Append</title>
<ellipse fill="#fdebd0" stroke="#3a3a3a" stroke-width="1.2" cx="854.25" cy="-22.63" rx="65.11" ry="22.76"/>
<text text-anchor="middle" x="854.25" y="-25.83" font-family="Helvetica,sans-Serif" font-size="11.00">Op_V_Append</text>
<text text-anchor="middle" x="854.25" y="-13.83" font-family="Helvetica,sans-Serif" font-size="11.00">KVAppend</text>
</g>
<!-- Op_V_CacheView -->
<g id="node10" class="node">
<title>Op_V_CacheView</title>
<ellipse fill="#eaeaea" stroke="#3a3a3a" stroke-width="1.2" cx="1150.78" cy="-22.63" rx="77.56" ry="22.76"/>
<text text-anchor="middle" x="1150.78" y="-25.83" font-family="Helvetica,sans-Serif" font-size="11.00">Op_V_CacheView</text>
<text text-anchor="middle" x="1150.78" y="-13.83" font-family="Helvetica,sans-Serif" font-size="11.00">Identity</text>
</g>
<!-- Op_V_Append&#45;&gt;Op_V_CacheView -->
<g id="edge2" class="edge">
<title>Op_V_Append&#45;&gt;Op_V_CacheView</title>
<path fill="none" stroke="#4a5568" d="M919.32,-22.63C919.32,-22.63 1065.97,-22.63 1065.97,-22.63"/>
<polygon fill="#4a5568" stroke="#4a5568" points="1065.97,-25.08 1072.97,-22.63 1065.97,-20.18 1065.97,-25.08"/>
<text text-anchor="middle" x="1011" y="-34.23" font-family="Helvetica,sans-Serif" font-size="8.00">V_CACHE_OUT</text>
<text text-anchor="middle" x="1011" y="-25.23" font-family="Helvetica,sans-Serif" font-size="8.00">shape=(1, 1, 8, 128)</text>
</g>
<!-- Op_V_HeadBroadcast -->
<g id="node11" class="node">
<title>Op_V_HeadBroadcast</title>
<ellipse fill="#fef9e7" stroke="#3a3a3a" stroke-width="1.2" cx="1447.31" cy="-22.63" rx="94.51" ry="22.76"/>
<text text-anchor="middle" x="1447.31" y="-25.83" font-family="Helvetica,sans-Serif" font-size="11.00">Op_V_HeadBroadcast</text>
<text text-anchor="middle" x="1447.31" y="-13.83" font-family="Helvetica,sans-Serif" font-size="11.00">HeadBroadcast</text>
</g>
<!-- Op_V_CacheView&#45;&gt;Op_V_HeadBroadcast -->
<g id="edge4" class="edge">
<title>Op_V_CacheView&#45;&gt;Op_V_HeadBroadcast</title>
<path fill="none" stroke="#4a5568" d="M1228.69,-22.63C1228.69,-22.63 1345.48,-22.63 1345.48,-22.63"/>
<polygon fill="#4a5568" stroke="#4a5568" points="1345.48,-25.08 1352.48,-22.63 1345.48,-20.18 1345.48,-25.08"/>
<text text-anchor="middle" x="1290.56" y="-34.23" font-family="Helvetica,sans-Serif" font-size="8.00">V_CTX</text>
<text text-anchor="middle" x="1290.56" y="-25.23" font-family="Helvetica,sans-Serif" font-size="8.00">shape=(1, 1, 8, 128)</text>
</g>
<!-- Op_V_HeadBroadcast&#45;&gt;Op_AV -->
<g id="edge7" class="edge">
<title>Op_V_HeadBroadcast&#45;&gt;Op_AV</title>
<path fill="none" stroke="#4a5568" d="M1498.81,-41.63C1498.81,-41.63 1677.25,-41.63 1677.25,-41.63"/>
<polygon fill="#4a5568" stroke="#4a5568" points="1677.25,-44.08 1684.25,-41.63 1677.25,-39.18 1677.25,-44.08"/>
<text text-anchor="middle" x="1604.07" y="-45.23" font-family="Helvetica,sans-Serif" font-size="8.00">V_ATTN</text>
<text text-anchor="middle" x="1604.07" y="-36.23" font-family="Helvetica,sans-Serif" font-size="8.00">shape=(1, 8, 8, 128)</text>
</g>
</g>
</svg>
